<!-- Generated by readme-aura https://github.com/collectioneur/readme-aura -->
<svg width="1200" height="240" viewBox="0 0 1200 240" xmlns="http://www.w3.org/2000/svg"><defs><pattern id="satori_pattern_id_0" x="0" y="0" width="1" height="1" patternUnits="objectBoundingBox"><linearGradient id="satori_biid_0" x1="0" y1="0" x2="1" y2="0" spreadMethod="pad"><stop offset="0%" stop-color="#ffb547"/><stop offset="100%" stop-color="#ff7849"/></linearGradient><rect x="0" y="0" width="1200" height="240" fill="url(#satori_biid_0)"/></pattern></defs><clipPath id="satori_cp-id"><rect x="0" y="0" width="1200" height="240"/></clipPath><mask id="satori_om-id"><rect x="0" y="0" width="1200" height="240" fill="#fff"/></mask><rect x="0" y="0" width="1200" height="240" fill="url(#satori_pattern_id_0)"/><clipPath id="satori_cp-id-0" clip-path="url(#satori_cp-id)"><rect x="0" y="0" width="1200" height="240"/></clipPath><mask id="satori_om-id-0"><rect x="0" y="0" width="1200" height="240" fill="#fff" mask="url(#satori_om-id)"/></mask><svg x="0" y="0" width="1200" height="240" preserveAspectRatio="none" clip-path="url(#satori_cp-id-0)" mask="url(#satori_om-id-0)"><defs><linearGradient id="ctaSweepGrad" x1="0" y1="0" x2="1" y2="0"><stop offset="0%" stop-color="#ffffff" stop-opacity="0"></stop><stop offset="50%" stop-color="#ffffff" stop-opacity="0.4"></stop><stop offset="100%" stop-color="#ffffff" stop-opacity="0"></stop></linearGradient></defs><rect id="cta-band" x="-500" y="0" width="500" height="240" fill="url(#ctaSweepGrad)"></rect><style>

      @keyframes ctaSweep { 0% { transform: translateX(-500px); } 100% { transform: translateX(1700px); } }
      #cta-band { animation: ctaSweep 4s ease-in-out infinite; }
    
</style>
</svg><mask id="satori_om-id-0-0"><rect x="0" y="0" width="0" height="240" fill="#fff" mask="url(#satori_om-id)"/></mask><mask id="satori_om-id-0-0-0"><rect x="0" y="0" width="0" height="240" fill="#fff" mask="url(#satori_om-id)"/></mask><mask id="satori_om-id-0-0-0-0"><rect x="0" y="0" width="0" height="240" fill="#fff" mask="url(#satori_om-id)"/></mask><mask id="satori_om-id-0-0-0-1"><rect x="0" y="0" width="0" height="240" fill="#fff" mask="url(#satori_om-id)"/></mask><mask id="satori_om-id-0-0-0-2"><rect x="0" y="0" width="0" height="240" fill="#fff" mask="url(#satori_om-id)"/></mask><mask id="satori_om-id-0-1"><rect x="0" y="0" width="0" height="240" fill="#fff" mask="url(#satori_om-id)"/></mask><mask id="satori_om-id-1"><rect x="56" y="53" width="548" height="135" fill="#fff" mask="url(#satori_om-id)"/></mask><mask id="satori_om-id-1-0"><rect x="56" y="53" width="548" height="15" fill="#fff" mask="url(#satori_om-id)"/></mask><g mask="url(#satori_om-id)" clip-path="url(#satori_cp-id)"><path fill="#0a0a0a" d="M59.3 66.8L59.3 66.8Q58.6 66.8 58.2 66.6Q57.7 66.3 57.4 65.9Q57.1 65.5 57.0 65.0L57.0 65.0L57.9 64.7Q58.1 65.2 58.4 65.6Q58.7 65.9 59.3 65.9L59.3 65.9Q59.9 65.9 60.2 65.6Q60.5 65.4 60.5 64.9L60.5 64.9Q60.5 64.6 60.4 64.4Q60.2 64.2 60.0 64.0Q59.8 63.9 59.6 63.8L59.6 63.8L58.0 62.8Q57.6 62.6 57.3 62.3Q57.0 62.0 56.9 61.6Q56.7 61.3 56.7 60.9L56.7 60.9Q56.7 60.6 56.9 60.2Q57.0 59.9 57.3 59.7Q57.6 59.5 58.1 59.4L58.1 59.4L58.1 59.4Q57.7 59.1 57.5 58.7Q57.3 58.4 57.3 58.0L57.3 58.0Q57.3 57.1 57.9 56.6Q58.5 56.2 59.4 56.2L59.4 56.2Q60.4 56.2 60.9 56.6Q61.4 57.1 61.7 58.0L61.7 58.0L60.8 58.2Q60.6 57.7 60.3 57.4Q60.1 57.1 59.5 57.1L59.5 57.1Q58.9 57.1 58.6 57.3Q58.3 57.6 58.3 58.0L58.3 58.0Q58.3 58.3 58.4 58.5Q58.6 58.7 58.8 58.9Q59.0 59.0 59.2 59.2L59.2 59.2L60.9 60.1Q61.3 60.4 61.5 60.7Q61.8 61.0 62.0 61.3Q62.1 61.6 62.1 62.0L62.1 62.0Q62.1 62.3 61.9 62.7Q61.8 63.0 61.5 63.2Q61.2 63.4 60.8 63.5L60.8 63.5L60.8 63.5Q61.0 63.7 61.2 63.9Q61.4 64.2 61.5 64.4Q61.6 64.7 61.6 65.0L61.6 65.0Q61.6 65.5 61.3 65.9Q61.0 66.3 60.5 66.5Q60.0 66.8 59.3 66.8ZM58.5 62.0L60.1 62.9Q60.2 63.1 60.5 63.0Q60.8 62.9 61.0 62.7Q61.2 62.4 61.2 62.0L61.2 62.0Q61.2 61.8 61.1 61.6Q61.0 61.4 60.8 61.2Q60.6 61.0 60.4 60.9L60.4 60.9L58.7 59.9Q58.5 59.8 58.3 59.9Q58.0 60.0 57.8 60.2Q57.7 60.5 57.7 60.8L57.7 60.8Q57.7 61.1 57.7 61.3Q57.8 61.5 58.0 61.7Q58.2 61.9 58.5 62.0L58.5 62.0Z M80.6 65L75.3 65L75.3 56.3L80.6 56.3L80.6 57.3L76.4 57.3L76.4 60.1L80.3 60.1L80.3 61.1L76.4 61.1L76.4 64.0L80.6 64.0L80.6 65ZM87.6 65L86.5 65L86.5 56.3L87.8 56.3L91.3 61.9Q91.5 62.1 91.7 62.4Q91.9 62.8 92.1 63.2L92.1 63.2Q92.2 63.4 92.4 63.7L92.4 63.7Q92.3 63.4 92.3 63.1L92.3 63.1Q92.3 62.7 92.3 62.3Q92.3 61.9 92.3 61.6L92.3 61.6L92.3 56.3L93.4 56.3L93.4 65L92.1 65L88.9 60.0Q88.7 59.7 88.5 59.3Q88.3 59.0 88.0 58.4L88.0 58.4Q87.8 58.1 87.5 57.6L87.5 57.6Q87.5 58.0 87.5 58.4L87.5 58.4Q87.6 59.0 87.6 59.4Q87.6 59.8 87.6 60.0L87.6 60.0L87.6 65ZM102.2 65L102.2 65L99.5 65L99.5 56.3L102.3 56.3Q103.6 56.3 104.5 56.8Q105.4 57.3 105.9 58.3Q106.4 59.3 106.4 60.6L106.4 60.6Q106.4 62.0 105.9 63.0Q105.4 63.9 104.5 64.5Q103.6 65 102.2 65ZM100.6 57.3L100.6 64.0L102.2 64.0Q103.2 64.0 103.9 63.6Q104.6 63.2 105.0 62.4Q105.3 61.7 105.3 60.6L105.3 60.6Q105.3 59.6 105.0 58.8Q104.6 58.1 104.0 57.7Q103.3 57.3 102.3 57.3L102.3 57.3L100.6 57.3Z "/></g><mask id="satori_om-id-1-1"><rect x="56" y="76" width="548" height="56" fill="#fff" mask="url(#satori_om-id)"/></mask><g mask="url(#satori_om-id)" clip-path="url(#satori_cp-id)"><path fill="#0a0a0a" d="M85.6 124L59.7 124L59.7 83.3L68.0 83.3L68.0 117.1L85.6 117.1L85.6 124ZM103.0 124.6L103.0 124.6Q98.3 124.6 94.9 122.7Q91.5 120.8 89.7 117.2Q87.9 113.7 87.9 108.9L87.9 108.9Q87.9 104.1 89.7 100.6Q91.5 97.0 94.8 95.0Q98.1 93.0 102.6 93.0L102.6 93.0Q105.6 93.0 108.2 94.0Q110.8 95.0 112.7 96.9Q114.7 98.8 115.8 101.7Q116.9 104.6 116.9 108.6L116.9 108.6L116.9 110.8L96 110.8Q96.1 113.2 96.9 114.8L96.9 114.8Q97.8 116.6 99.4 117.5Q101.0 118.4 103.1 118.4L103.1 118.4Q104.6 118.4 105.7 118.0Q106.9 117.6 107.7 116.8Q108.6 116.0 109.0 114.8L109.0 114.8L116.5 116.2Q115.7 118.7 113.9 120.6Q112.1 122.5 109.3 123.6Q106.6 124.6 103.0 124.6ZM96.1 105.7L96.1 105.7L109.0 105.7Q108.9 104.2 108.4 102.9L108.4 102.9Q107.6 101.2 106.2 100.2Q104.8 99.2 102.6 99.2L102.6 99.2Q100.5 99.2 99.0 100.2Q97.5 101.2 96.8 102.9L96.8 102.9Q96.2 104.1 96.1 105.7ZM130.0 93.4L135.7 93.4L135.7 99.7L130.0 99.7L130.0 115.1Q130.0 116.5 130.6 117.2Q131.3 117.9 132.8 117.9L132.8 117.9Q133.2 117.9 134.1 117.8Q134.9 117.7 135.4 117.5L135.4 117.5L136.5 123.7Q135.2 124.1 133.8 124.3Q132.5 124.4 131.2 124.4L131.2 124.4Q126.6 124.4 124.2 122.2Q121.8 120.0 121.8 115.8L121.8 115.8L121.8 99.7L117.6 99.7L117.6 93.4L121.8 93.4L121.8 86.2L130.0 86.2L130.0 93.4ZM148.1 100.2L141.9 100.2L141.1 83.3L149.0 83.3L148.1 100.2ZM168.1 124.6L168.1 124.6Q164.5 124.6 161.6 123.5Q158.8 122.5 157.0 120.5Q155.2 118.5 154.6 115.6L154.6 115.6L162.3 114.3Q162.9 116.5 164.4 117.5Q165.9 118.6 168.4 118.6L168.4 118.6Q170.7 118.6 172.1 117.7Q173.5 116.8 173.5 115.4L173.5 115.4Q173.5 114.2 172.5 113.5Q171.5 112.7 169.5 112.3L169.5 112.3L164.2 111.2Q159.8 110.3 157.6 108.1Q155.4 106.0 155.4 102.5L155.4 102.5Q155.4 99.6 157.0 97.5Q158.7 95.3 161.5 94.2Q164.4 93.0 168.3 93.0L168.3 93.0Q171.9 93.0 174.5 94.0Q177.2 95.0 178.8 96.9Q180.5 98.7 181.0 101.2L181.0 101.2L173.8 102.5Q173.3 100.9 172.0 99.9Q170.6 98.9 168.4 98.9L168.4 98.9Q166.4 98.9 165.0 99.8Q163.6 100.6 163.6 102.0L163.6 102.0Q163.6 103.2 164.5 104.0Q165.4 104.8 167.6 105.2L167.6 105.2L173.1 106.3Q177.5 107.2 179.7 109.2Q181.8 111.3 181.8 114.6L181.8 114.6Q181.8 117.6 180.1 119.8Q178.3 122.1 175.2 123.3Q172.2 124.6 168.1 124.6Z M213.8 124.5L213.8 124.5Q211.3 124.5 209.5 123.7Q207.8 122.8 206.7 121.6Q205.7 120.3 205.1 119.1L205.1 119.1L204.7 119.1L204.7 124L196.6 124L196.6 83.3L204.8 83.3L204.8 98.6L205.1 98.6Q205.7 97.4 206.7 96.1Q207.8 94.8 209.5 93.9Q211.2 93.0 213.8 93.0L213.8 93.0Q217.2 93.0 220.0 94.8Q222.8 96.5 224.5 100.0Q226.2 103.5 226.2 108.8L226.2 108.8Q226.2 113.9 224.6 117.4Q222.9 120.9 220.1 122.7Q217.3 124.5 213.8 124.5ZM211.2 117.9L211.2 117.9Q213.4 117.9 214.8 116.8Q216.3 115.6 217.0 113.5Q217.8 111.4 217.8 108.7L217.8 108.7Q217.8 106.1 217.0 104.0Q216.3 102.0 214.8 100.8Q213.4 99.6 211.2 99.6L211.2 99.6Q209.1 99.6 207.7 100.7Q206.2 101.9 205.4 103.9Q204.6 106.0 204.6 108.7L204.6 108.7Q204.6 111.5 205.4 113.6Q206.2 115.6 207.7 116.8Q209.2 117.9 211.2 117.9ZM240.5 124.4L240.5 124.4Q237.3 124.4 234.9 123.0Q232.5 121.6 231.2 119.0Q229.9 116.5 229.9 112.9L229.9 112.9L229.9 93.4L238.1 93.4L238.1 111.4Q238.1 114.3 239.6 115.9Q241.1 117.5 243.7 117.5L243.7 117.5Q245.4 117.5 246.8 116.8Q248.1 116.0 248.8 114.6Q249.6 113.1 249.6 111.1L249.6 111.1L249.6 93.4L257.8 93.4L257.8 124L250.1 124L250.0 117.6Q248.8 120.6 246.8 122.3L246.8 122.3Q244.3 124.4 240.5 124.4ZM271 124L262.8 124L262.8 93.4L271 93.4L271 124ZM266.9 89.4L266.9 89.4Q265.0 89.4 263.7 88.2Q262.4 87.0 262.4 85.2L262.4 85.2Q262.4 83.5 263.7 82.2Q265.0 81.0 266.9 81.0L266.9 81.0Q268.8 81.0 270.1 82.2Q271.4 83.4 271.4 85.2L271.4 85.2Q271.4 87.0 270.1 88.2Q268.8 89.4 266.9 89.4ZM276.0 83.3L284.2 83.3L284.2 124L276.0 124L276.0 83.3ZM300.3 124.5L300.3 124.5Q296.8 124.5 294.0 122.7Q291.1 120.9 289.5 117.4Q287.9 113.9 287.9 108.8L287.9 108.8Q287.9 103.5 289.6 100.0Q291.3 96.5 294.1 94.8Q296.9 93.0 300.3 93.0L300.3 93.0Q302.9 93.0 304.6 93.9Q306.3 94.8 307.4 96.1Q308.5 97.4 309.0 98.6L309.0 98.6L309.2 98.6L309.2 83.3L317.4 83.3L317.4 124L309.4 124L309.4 119.1L309.0 119.1Q308.4 120.3 307.3 121.6Q306.3 122.8 304.5 123.7Q302.8 124.5 300.3 124.5ZM302.8 117.9L302.8 117.9Q304.9 117.9 306.4 116.8Q307.9 115.6 308.6 113.6Q309.4 111.5 309.4 108.7L309.4 108.7Q309.4 106.0 308.7 103.9Q307.9 101.9 306.4 100.7Q305.0 99.6 302.8 99.6L302.8 99.6Q300.7 99.6 299.2 100.8Q297.8 102.0 297.0 104.0Q296.3 106.1 296.3 108.7L296.3 108.7Q296.3 111.4 297.0 113.5Q297.8 115.6 299.3 116.8Q300.7 117.9 302.8 117.9Z M345.9 124.6L345.9 124.6Q342.2 124.6 339.3 123.5Q336.5 122.5 334.7 120.5Q332.9 118.5 332.3 115.6L332.3 115.6L340.0 114.3Q340.6 116.5 342.1 117.5Q343.6 118.6 346.1 118.6L346.1 118.6Q348.4 118.6 349.8 117.7Q351.2 116.8 351.2 115.4L351.2 115.4Q351.2 114.2 350.2 113.5Q349.2 112.7 347.2 112.3L347.2 112.3L341.9 111.2Q337.5 110.3 335.3 108.1Q333.1 106.0 333.1 102.5L333.1 102.5Q333.1 99.6 334.8 97.5Q336.4 95.3 339.2 94.2Q342.1 93.0 346.0 93.0L346.0 93.0Q349.6 93.0 352.3 94.0Q354.9 95.0 356.5 96.9Q358.2 98.7 358.7 101.2L358.7 101.2L351.5 102.5Q351.0 100.9 349.7 99.9Q348.3 98.9 346.1 98.9L346.1 98.9Q344.1 98.9 342.7 99.8Q341.3 100.6 341.3 102.0L341.3 102.0Q341.3 103.2 342.2 104.0Q343.1 104.8 345.3 105.2L345.3 105.2L350.8 106.3Q355.2 107.2 357.4 109.2Q359.5 111.3 359.5 114.6L359.5 114.6Q359.5 117.6 357.8 119.8Q356.0 122.1 352.9 123.3Q349.9 124.6 345.9 124.6ZM376.7 124.6L376.7 124.6Q372.2 124.6 368.8 122.6Q365.4 120.6 363.6 117.1Q361.8 113.6 361.8 108.9L361.8 108.9Q361.8 104.1 363.6 100.6Q365.4 97.0 368.8 95.0Q372.2 93.0 376.7 93.0L376.7 93.0Q381.4 93.0 384.7 95.0Q388.1 97.0 389.9 100.6Q391.7 104.1 391.7 108.9L391.7 108.9Q391.7 113.6 389.9 117.1Q388.1 120.6 384.7 122.6Q381.4 124.6 376.7 124.6ZM376.7 118.1L376.7 118.1Q378.9 118.1 380.4 116.9Q381.9 115.7 382.6 113.6Q383.4 111.5 383.4 108.8L383.4 108.8Q383.4 106.1 382.6 104.0Q381.9 101.9 380.4 100.7Q378.9 99.5 376.7 99.5L376.7 99.5Q374.6 99.5 373.1 100.7Q371.6 101.9 370.9 104.0Q370.2 106.1 370.2 108.8L370.2 108.8Q370.2 111.5 370.9 113.6Q371.6 115.7 373.1 116.9Q374.6 118.1 376.7 118.1ZM403.6 124L395.4 124L395.4 93.4L403.0 93.4L403.3 99.4Q404.0 97.7 404.9 96.4L404.9 96.4Q406.3 94.7 408.2 93.8Q410.0 93.0 412.1 93.0L412.1 93.0Q415.4 93.0 417.4 95.0L417.4 95.0Q419.0 96.7 419.9 99.8L419.9 99.8Q420.6 98.0 421.7 96.7L421.7 96.7Q423.2 94.8 425.3 93.9Q427.4 93.0 429.8 93.0L429.8 93.0Q432.6 93.0 434.8 94.2Q437.0 95.4 438.3 97.7Q439.5 100.0 439.5 103.4L439.5 103.4L439.5 124L431.3 124L431.3 104.9Q431.3 102.3 429.9 101.1Q428.5 99.8 426.5 99.8L426.5 99.8Q424.9 99.8 423.8 100.5Q422.7 101.2 422.0 102.4Q421.4 103.6 421.4 105.2L421.4 105.2L421.4 124L413.5 124L413.5 104.7Q413.5 102.5 412.2 101.2Q410.8 99.8 408.7 99.8L408.7 99.8Q407.3 99.8 406.1 100.5Q405.0 101.1 404.3 102.4Q403.6 103.7 403.6 105.5L403.6 105.5L403.6 124ZM458.3 124.6L458.3 124.6Q453.7 124.6 450.3 122.7Q446.9 120.8 445.1 117.2Q443.2 113.7 443.2 108.9L443.2 108.9Q443.2 104.1 445.0 100.6Q446.8 97.0 450.2 95.0Q453.5 93.0 457.9 93.0L457.9 93.0Q460.9 93.0 463.5 94.0Q466.1 95.0 468.1 96.9Q470.1 98.8 471.2 101.7Q472.3 104.6 472.3 108.6L472.3 108.6L472.3 110.8L451.4 110.8Q451.4 113.2 452.3 114.8L452.3 114.8Q453.1 116.6 454.7 117.5Q456.3 118.4 458.5 118.4L458.5 118.4Q459.9 118.4 461.1 118.0Q462.3 117.6 463.1 116.8Q463.9 116.0 464.4 114.8L464.4 114.8L471.8 116.2Q471.1 118.7 469.2 120.6Q467.4 122.5 464.7 123.6Q461.9 124.6 458.3 124.6ZM451.4 105.7L451.4 105.7L464.4 105.7Q464.2 104.2 463.7 102.9L463.7 102.9Q463.0 101.2 461.5 100.2Q460.1 99.2 458.0 99.2L458.0 99.2Q455.9 99.2 454.4 100.2Q452.9 101.2 452.1 102.9L452.1 102.9Q451.6 104.1 451.4 105.7ZM485.3 93.4L491.1 93.4L491.1 99.7L485.3 99.7L485.3 115.1Q485.3 116.5 486.0 117.2Q486.6 117.9 488.1 117.9L488.1 117.9Q488.6 117.9 489.4 117.8Q490.3 117.7 490.7 117.5L490.7 117.5L491.9 123.7Q490.5 124.1 489.2 124.3Q487.8 124.4 486.6 124.4L486.6 124.4Q482.0 124.4 479.6 122.2Q477.1 120.0 477.1 115.8L477.1 115.8L477.1 99.7L472.9 99.7L472.9 93.4L477.1 93.4L477.1 86.2L485.3 86.2L485.3 93.4ZM502.6 106.3L502.6 106.3L502.6 124L494.4 124L494.4 83.3L502.4 83.3L502.4 99.3Q503.6 96.7 505.4 95.1L505.4 95.1Q507.9 93.0 511.8 93.0L511.8 93.0Q514.9 93.0 517.3 94.4Q519.7 95.8 521.0 98.4Q522.3 101.0 522.3 104.6L522.3 104.6L522.3 124L514.1 124L514.1 106.0Q514.1 103.1 512.6 101.5Q511.1 99.9 508.5 99.9L508.5 99.9Q506.8 99.9 505.5 100.7Q504.1 101.4 503.3 102.8Q502.6 104.3 502.6 106.3ZM535.5 124L527.3 124L527.3 93.4L535.5 93.4L535.5 124ZM531.4 89.4L531.4 89.4Q529.5 89.4 528.2 88.2Q526.9 87.0 526.9 85.2L526.9 85.2Q526.9 83.5 528.2 82.2Q529.5 81.0 531.4 81.0L531.4 81.0Q533.2 81.0 534.5 82.2Q535.9 83.4 535.9 85.2L535.9 85.2Q535.9 87.0 534.5 88.2Q533.2 89.4 531.4 89.4ZM548.6 106.3L548.6 106.3L548.6 124L540.4 124L540.4 93.4L548.2 93.4L548.3 99.7Q549.5 96.8 551.5 95.1L551.5 95.1Q553.9 93.0 557.8 93.0L557.8 93.0Q561.0 93.0 563.3 94.4Q565.7 95.8 567.0 98.4Q568.3 101.0 568.3 104.6L568.3 104.6L568.3 124L560.1 124L560.1 106.0Q560.1 103.1 558.6 101.5Q557.2 99.9 554.6 99.9L554.6 99.9Q552.8 99.9 551.5 100.7Q550.1 101.4 549.4 102.8Q548.6 104.3 548.6 106.3ZM586.9 136.1L586.9 136.1Q583.1 136.1 580.2 135.1Q577.4 134.1 575.6 132.4Q573.8 130.8 573.1 128.6L573.1 128.6L580.2 126.6Q580.6 127.5 581.4 128.3Q582.2 129.1 583.5 129.6Q584.9 130.1 586.8 130.1L586.8 130.1Q590.0 130.1 591.8 128.7Q593.6 127.3 593.6 124.2L593.6 124.2L593.6 118.6L592.9 118.6Q592.4 119.8 591.3 121.0Q590.3 122.1 588.6 122.8Q586.9 123.6 584.4 123.6L584.4 123.6Q581.0 123.6 578.2 121.9Q575.4 120.3 573.7 117.0Q572.0 113.7 572.0 108.7L572.0 108.7Q572.0 103.5 573.7 100.0Q575.4 96.5 578.3 94.8Q581.1 93.0 584.5 93.0L584.5 93.0Q587.0 93.0 588.8 93.9Q590.5 94.8 591.6 96.1Q592.7 97.4 593.3 98.6L593.3 98.6L593.6 98.6L593.6 93.4L601.7 93.4L601.7 123.8Q601.7 127.9 599.8 130.6Q597.9 133.4 594.5 134.7Q591.2 136.1 586.9 136.1ZM587.0 117.3L587.0 117.3Q589.1 117.3 590.6 116.3Q592.1 115.3 592.8 113.3Q593.6 111.3 593.6 108.6L593.6 108.6Q593.6 105.9 592.8 103.9Q592.1 101.9 590.6 100.7Q589.1 99.6 587.0 99.6L587.0 99.6Q584.9 99.6 583.4 100.8Q581.9 101.9 581.2 104.0Q580.4 106.0 580.4 108.6L580.4 108.6Q580.4 111.3 581.2 113.2Q581.9 115.2 583.4 116.3Q584.9 117.3 587.0 117.3Z "/></g><mask id="satori_om-id-1-2"><rect x="56" y="132" width="548" height="56" fill="#fff" mask="url(#satori_om-id)"/></mask><g mask="url(#satori_om-id)" clip-path="url(#satori_cp-id)"><path fill="#0a0a0a" d="M72.1 180L67.2 180L57.9 149.4L63.1 149.4L66.9 162.8Q67.6 165.5 68.5 169.0L68.5 169.0Q69.2 171.6 69.8 174.7L69.8 174.7Q70.4 171.7 71.0 169.1L71.0 169.1Q71.9 165.7 72.7 162.8L72.7 162.8L76.3 149.4L81.6 149.4L85.2 162.8Q86.0 165.6 86.8 169.0L86.8 169.0Q87.4 171.6 88.0 174.6L88.0 174.6Q88.7 171.7 89.3 169.1L89.3 169.1Q90.2 165.6 91.0 162.8L91.0 162.8L94.7 149.4L99.9 149.4L90.6 180L85.8 180L81.8 166.2Q81.2 164.1 80.6 161.9Q80.0 159.7 79.5 157.4L79.5 157.4Q79.2 156.2 78.9 155.0L78.9 155.0Q78.6 156.2 78.4 157.4L78.4 157.4Q77.8 159.7 77.2 161.9Q76.6 164.1 76.0 166.2L76.0 166.2L72.1 180ZM116.6 180.7L116.6 180.7Q112.4 180.7 109.3 178.7Q106.2 176.7 104.4 173.2Q102.7 169.6 102.7 164.9L102.7 164.9Q102.7 160.1 104.4 156.6Q106.2 153.0 109.3 151.0Q112.4 149.0 116.6 149.0L116.6 149.0Q120.8 149.0 123.9 151.0Q127.1 153.0 128.8 156.6Q130.6 160.1 130.6 164.9L130.6 164.9Q130.6 169.6 128.8 173.2Q127.1 176.7 123.9 178.7Q120.8 180.7 116.6 180.7ZM116.6 176.3L116.6 176.3Q119.7 176.3 121.7 174.7Q123.7 173.1 124.6 170.5Q125.6 167.9 125.6 164.9L125.6 164.9Q125.6 161.9 124.6 159.3Q123.7 156.6 121.7 155.0Q119.7 153.4 116.6 153.4L116.6 153.4Q113.5 153.4 111.6 155.0Q109.6 156.6 108.6 159.2Q107.7 161.8 107.7 164.9L107.7 164.9Q107.7 167.9 108.6 170.5Q109.6 173.1 111.6 174.7Q113.5 176.3 116.6 176.3ZM140.6 180L135.7 180L135.7 149.4L140.5 149.4L140.5 154.1L140.8 154.1Q141.7 151.8 143.8 150.4Q146.0 149.0 148.7 149.0L148.7 149.0Q149.3 149.0 150.0 149.0Q150.8 149.0 151.2 149.1L151.2 149.1L151.2 154.0Q151.0 154.0 150.1 153.9Q149.3 153.8 148.3 153.8L148.3 153.8Q146.1 153.8 144.4 154.7Q142.6 155.6 141.6 157.2Q140.6 158.8 140.6 160.9L140.6 160.9L140.6 180ZM160.6 149.4L166.8 149.4L166.8 153.6L160.6 153.6L160.6 172.1Q160.6 174.1 161.4 175.1Q162.2 176.0 164.2 176.0L164.2 176.0Q164.6 176.0 165.3 175.9Q166.1 175.8 166.7 175.7L166.7 175.7L167.7 179.8Q166.9 180.1 166.0 180.2Q165.0 180.4 164.0 180.4L164.0 180.4Q160.1 180.4 157.8 178.3Q155.6 176.2 155.6 172.5L155.6 172.5L155.6 153.6L151.0 153.6L151.0 149.4L155.6 149.4L155.6 142.2L160.6 142.2L160.6 149.4ZM176.1 161.7L176.1 161.7L176.1 180L171.1 180L171.1 139.3L176.1 139.3L176.1 154.7Q177.3 152.1 179.2 150.8L179.2 150.8Q181.8 149.0 185.2 149.0L185.2 149.0Q188.3 149.0 190.7 150.3Q193.0 151.6 194.3 154.1Q195.6 156.7 195.6 160.6L195.6 160.6L195.6 180L190.7 180L190.7 161.0Q190.7 157.5 188.8 155.5Q187.0 153.5 183.8 153.5L183.8 153.5Q181.6 153.5 179.8 154.4Q178.1 155.4 177.1 157.2Q176.1 159.1 176.1 161.7Z M226.4 180.7L226.4 180.7Q223.2 180.7 220.8 179.7Q218.3 178.8 216.8 177.0Q215.2 175.2 214.6 172.6L214.6 172.6L219.3 171.5Q220.0 174.0 221.8 175.2Q223.6 176.3 226.3 176.3L226.3 176.3Q229.5 176.3 231.4 175.0Q233.3 173.6 233.3 171.7L233.3 171.7Q233.3 170.1 232.2 169.1Q231.1 168.0 228.8 167.5L228.8 167.5L223.8 166.3Q219.6 165.3 217.6 163.3Q215.6 161.2 215.6 158.0L215.6 158.0Q215.6 155.3 217.0 153.3Q218.5 151.3 221.1 150.2Q223.6 149.0 226.9 149.0L226.9 149.0Q230.0 149.0 232.2 150.0Q234.4 150.9 235.8 152.6Q237.2 154.2 237.9 156.4L237.9 156.4L233.4 157.6Q232.8 155.9 231.3 154.6Q229.9 153.2 226.9 153.2L226.9 153.2Q224.2 153.2 222.3 154.5Q220.5 155.7 220.5 157.7L220.5 157.7Q220.5 159.4 221.8 160.4Q223.0 161.4 225.7 162.0L225.7 162.0L230.3 163.1Q234.4 164.1 236.4 166.2Q238.4 168.2 238.4 171.4L238.4 171.4Q238.4 174.1 236.9 176.2Q235.4 178.3 232.7 179.5Q230.0 180.7 226.4 180.7ZM248.5 161.7L248.5 161.7L248.5 180L243.6 180L243.6 139.3L248.5 139.3L248.5 154.7Q249.7 152.1 251.6 150.8L251.6 150.8Q254.2 149.0 257.7 149.0L257.7 149.0Q260.8 149.0 263.1 150.3Q265.4 151.6 266.7 154.1Q268.0 156.7 268.0 160.6L268.0 160.6L268.0 180L263.1 180L263.1 161.0Q263.1 157.5 261.2 155.5Q259.4 153.5 256.2 153.5L256.2 153.5Q254.0 153.5 252.2 154.4Q250.5 155.4 249.5 157.2Q248.5 159.1 248.5 161.7ZM279.6 180L274.7 180L274.7 149.4L279.6 149.4L279.6 180ZM277.2 144.4L277.2 144.4Q275.8 144.4 274.7 143.5Q273.7 142.5 273.7 141.2L273.7 141.2Q273.7 139.8 274.7 138.9Q275.8 137.9 277.2 137.9L277.2 137.9Q278.6 137.9 279.6 138.9Q280.6 139.8 280.6 141.2L280.6 141.2Q280.6 142.5 279.6 143.5Q278.6 144.4 277.2 144.4ZM291.1 191.4L286.2 191.4L286.2 149.4L291.0 149.4L291.0 154.3L291.5 154.3Q292.1 153.5 293.0 152.3Q293.9 151.0 295.7 150.0Q297.4 149.0 300.4 149.0L300.4 149.0Q304.2 149.0 307.1 151.0Q310.0 152.9 311.7 156.4Q313.4 160.0 313.4 164.8L313.4 164.8Q313.4 169.7 311.7 173.2Q310.1 176.8 307.2 178.7Q304.2 180.7 300.4 180.7L300.4 180.7Q297.5 180.7 295.7 179.7Q294.0 178.7 293.0 177.4Q292.1 176.1 291.5 175.3L291.5 175.3L291.1 175.3L291.1 191.4ZM299.7 176.3L299.7 176.3Q302.6 176.3 304.5 174.7Q306.4 173.2 307.4 170.6Q308.3 167.9 308.3 164.7L308.3 164.7Q308.3 161.6 307.4 159.0Q306.4 156.5 304.5 155.0Q302.6 153.4 299.7 153.4L299.7 153.4Q296.9 153.4 294.9 154.9Q293.0 156.3 292.1 158.8Q291.1 161.4 291.1 164.7L291.1 164.7Q291.1 168.1 292.1 170.7Q293.1 173.3 295.0 174.8Q296.9 176.3 299.7 176.3ZM323.4 191.4L318.5 191.4L318.5 149.4L323.3 149.4L323.3 154.3L323.8 154.3Q324.3 153.5 325.3 152.3Q326.2 151.0 327.9 150.0Q329.7 149.0 332.7 149.0L332.7 149.0Q336.5 149.0 339.4 151.0Q342.3 152.9 344.0 156.4Q345.6 160.0 345.6 164.8L345.6 164.8Q345.6 169.7 344 173.2Q342.4 176.8 339.4 178.7Q336.5 180.7 332.7 180.7L332.7 180.7Q329.8 180.7 328.0 179.7Q326.3 178.7 325.3 177.4Q324.3 176.1 323.8 175.3L323.8 175.3L323.4 175.3L323.4 191.4ZM332.0 176.3L332.0 176.3Q334.8 176.3 336.8 174.7Q338.7 173.2 339.7 170.6Q340.6 167.9 340.6 164.7L340.6 164.7Q340.6 161.6 339.7 159.0Q338.7 156.5 336.8 155.0Q334.9 153.4 332.0 153.4L332.0 153.4Q329.2 153.4 327.2 154.9Q325.3 156.3 324.4 158.8Q323.4 161.4 323.4 164.7L323.4 164.7Q323.4 168.1 324.4 170.7Q325.4 173.3 327.3 174.8Q329.2 176.3 332.0 176.3ZM355.7 180L350.8 180L350.8 149.4L355.7 149.4L355.7 180ZM353.3 144.4L353.3 144.4Q351.9 144.4 350.9 143.5Q349.9 142.5 349.9 141.2L349.9 141.2Q349.9 139.8 350.9 138.9Q351.9 137.9 353.3 137.9L353.3 137.9Q354.7 137.9 355.7 138.9Q356.7 139.8 356.7 141.2L356.7 141.2Q356.7 142.5 355.7 143.5Q354.7 144.4 353.3 144.4ZM367.3 161.7L367.3 161.7L367.3 180L362.4 180L362.4 149.4L367.1 149.4L367.1 155.1Q368.4 152.2 370.4 150.8L370.4 150.8Q373.0 149.0 376.5 149.0L376.5 149.0Q379.6 149.0 381.9 150.3Q384.2 151.6 385.5 154.1Q386.8 156.7 386.8 160.6L386.8 160.6L386.8 180L381.9 180L381.9 161.0Q381.9 157.5 380.0 155.5Q378.2 153.5 375 153.5L375 153.5Q372.8 153.5 371.1 154.4Q369.3 155.4 368.3 157.2Q367.3 159.1 367.3 161.7ZM405.8 192.1L405.8 192.1Q402.4 192.1 400.0 191.2Q397.5 190.4 395.9 188.9Q394.2 187.5 393.3 185.9L393.3 185.9L397.3 183.3Q397.9 184.2 398.9 185.2Q399.9 186.3 401.5 187.0Q403.2 187.8 405.8 187.8L405.8 187.8Q409.5 187.8 411.9 186.0Q414.2 184.3 414.2 180.5L414.2 180.5L414.2 174.4L413.8 174.4Q413.3 175.3 412.3 176.5Q411.4 177.7 409.6 178.6Q407.8 179.5 404.9 179.5L404.9 179.5Q401.2 179.5 398.3 177.8Q395.4 176.0 393.7 172.7Q392.0 169.4 392.0 164.6L392.0 164.6Q392.0 159.8 393.6 156.4Q395.3 152.9 398.3 151.0Q401.2 149.0 405.0 149.0L405.0 149.0Q407.9 149.0 409.7 150.0Q411.5 151.0 412.4 152.2Q413.4 153.5 413.9 154.3L413.9 154.3L414.4 154.3L414.4 149.4L419.2 149.4L419.2 180.8Q419.2 184.7 417.4 187.2Q415.6 189.7 412.6 190.9Q409.6 192.1 405.8 192.1ZM405.7 175.1L405.7 175.1Q408.5 175.1 410.4 173.9Q412.3 172.6 413.3 170.2Q414.3 167.8 414.3 164.5L414.3 164.5Q414.3 161.2 413.3 158.7Q412.3 156.3 410.4 154.9Q408.5 153.4 405.7 153.4L405.7 153.4Q402.8 153.4 400.9 154.9Q398.9 156.4 398.0 158.9Q397.0 161.4 397.0 164.5L397.0 164.5Q397.0 167.6 398.0 170.0Q398.9 172.4 400.9 173.8Q402.8 175.1 405.7 175.1ZM429.5 180.4L429.5 180.4Q428.0 180.4 426.9 179.3Q425.9 178.2 425.9 176.7L425.9 176.7Q425.9 175.1 426.9 174.1Q428.0 173.0 429.5 173.0L429.5 173.0Q431.1 173.0 432.2 174.1Q433.2 175.1 433.2 176.7L433.2 176.7Q433.2 178.2 432.2 179.3Q431.1 180.4 429.5 180.4Z "/></g><mask id="satori_om-id-2"><rect x="801" y="68" width="343" height="104" fill="#fff" mask="url(#satori_om-id)"/></mask><mask id="satori_om-id-2-0"><rect x="1044" y="68" width="100" height="15" fill="#fff" mask="url(#satori_om-id)"/></mask><g mask="url(#satori_om-id)" clip-path="url(#satori_cp-id)"><path fill="#0a0a0a" d="M1048.0 80L1046.7 80L1044.3 71.3L1045.4 71.3L1046.8 76.6Q1046.9 77.1 1047.0 77.5Q1047.1 77.9 1047.2 78.4L1047.2 78.4Q1047.3 78.7 1047.3 79.0L1047.3 79.0Q1047.4 78.7 1047.5 78.4L1047.5 78.4Q1047.5 77.9 1047.7 77.5Q1047.8 77.1 1047.9 76.6L1047.9 76.6L1049.3 71.3L1050.5 71.3L1051.9 76.6Q1052.1 77.1 1052.2 77.5Q1052.3 77.9 1052.4 78.4L1052.4 78.4Q1052.4 78.7 1052.5 78.9L1052.5 78.9Q1052.5 78.7 1052.6 78.4L1052.6 78.4Q1052.7 77.9 1052.8 77.5Q1052.9 77.1 1053.0 76.6L1053.0 76.6L1054.4 71.3L1055.5 71.3L1053.1 80L1051.8 80L1050.3 74.5Q1050.2 73.9 1050.1 73.3L1050.1 73.3Q1050.0 72.9 1049.9 72.5L1049.9 72.5Q1049.8 72.9 1049.8 73.2L1049.8 73.2Q1049.6 73.8 1049.5 74.5L1049.5 74.5L1048.0 80ZM1061.0 80L1059.9 80L1059.9 71.3L1062.9 71.3Q1063.9 71.3 1064.5 71.6Q1065.2 72.0 1065.5 72.6Q1065.8 73.2 1065.8 74.0Q1065.8 74.7 1065.5 75.3Q1065.2 75.9 1064.5 76.3L1064.5 76.3Q1064.4 76.4 1064.2 76.4L1064.2 76.4L1066.2 80L1064.9 80L1063.1 76.6Q1063.0 76.6 1062.9 76.6L1062.9 76.6L1061.0 76.6L1061.0 80ZM1061.0 72.2L1061.0 75.6L1062.8 75.6Q1063.5 75.6 1063.9 75.4Q1064.3 75.2 1064.5 74.8Q1064.7 74.5 1064.7 74.0L1064.7 74.0Q1064.7 73.4 1064.5 73.1Q1064.3 72.7 1063.9 72.5Q1063.5 72.2 1062.8 72.2L1062.8 72.2L1061.0 72.2ZM1070.6 71.3L1071.7 71.3L1071.7 80L1070.6 80L1070.6 71.3ZM1079.1 72.3L1076.3 72.3L1076.3 71.3L1082.9 71.3L1082.9 72.3L1080.2 72.3L1080.2 80L1079.1 80L1079.1 72.3ZM1092.9 80L1087.6 80L1087.6 71.3L1092.9 71.3L1092.9 72.3L1088.7 72.3L1088.7 75.1L1092.6 75.1L1092.6 76.1L1088.7 76.1L1088.7 79.0L1092.9 79.0L1092.9 80Z M1106.4 72.3L1103.7 72.3L1103.7 71.3L1110.3 71.3L1110.3 72.3L1107.5 72.3L1107.5 80L1106.4 80L1106.4 72.3ZM1118.4 80.1L1118.4 80.1Q1117.3 80.1 1116.4 79.6Q1115.6 79.0 1115.1 78.0Q1114.6 77.0 1114.6 75.6L1114.6 75.6Q1114.6 74.3 1115.1 73.2Q1115.6 72.2 1116.4 71.7Q1117.3 71.2 1118.4 71.2L1118.4 71.2Q1119.6 71.2 1120.4 71.7Q1121.3 72.2 1121.8 73.2Q1122.3 74.3 1122.3 75.6L1122.3 75.6Q1122.3 77.0 1121.8 78.0Q1121.3 79.0 1120.4 79.6Q1119.6 80.1 1118.4 80.1ZM1118.4 79.1L1118.4 79.1Q1119.2 79.1 1119.9 78.7Q1120.5 78.3 1120.9 77.5Q1121.2 76.8 1121.2 75.6L1121.2 75.6Q1121.2 74.5 1120.9 73.7Q1120.5 73.0 1119.9 72.6Q1119.2 72.2 1118.4 72.2L1118.4 72.2Q1117.7 72.2 1117.0 72.6Q1116.4 73.0 1116.0 73.8Q1115.6 74.5 1115.6 75.6L1115.6 75.6Q1115.6 76.8 1116.0 77.5Q1116.4 78.3 1117.0 78.7Q1117.7 79.1 1118.4 79.1Z M1138.4 69.1L1138.4 82.4L1134.3 82.4L1134.3 69.1L1138.4 69.1ZM1136.7 80.4L1135.4 81.1L1135.4 81.5L1137.3 81.5L1137.3 81.1L1136.0 81.1L1137.3 80.4L1137.3 80L1135.4 80L1135.4 80.4L1136.7 80.4ZM1137.3 78.1L1135.4 78.1L1135.4 79.6L1137.3 79.6L1137.3 78.1ZM1136.9 78.5L1136.9 79.3L1135.8 79.3L1135.8 78.5L1136.9 78.5ZM1135.8 75.9L1135.4 75.9L1135.4 77.4L1137.3 77.4L1137.3 75.9L1136.2 75.9L1136.2 76.6L1136.5 76.6L1136.5 76.3L1136.9 76.3L1136.9 77L1135.8 77L1135.8 75.9ZM1136.9 75.1L1135.4 75.1L1135.4 75.5L1137.3 75.5L1137.3 74.2L1136.9 74.2L1136.9 75.1ZM1136.2 74.4L1135.4 74.4L1135.4 74.8L1136.5 74.8L1136.5 73.8L1137.3 73.8L1137.3 73.4L1135.4 73.4L1135.4 73.8L1136.2 73.8L1136.2 74.4ZM1136.2 72.1L1136.2 72.7L1135.8 72.7L1135.8 72.1L1136.2 72.1ZM1136.5 71.8L1135.4 71.8L1135.4 73.1L1137.3 73.1L1137.3 72.7L1136.5 72.7L1136.5 71.8ZM1136.1 71L1135.4 71L1135.4 71.4L1137.3 71.4L1137.3 71L1136.4 71L1136.4 70.4L1137.3 70.4L1137.3 70.1L1135.4 70.1L1135.4 70.4L1136.1 70.4L1136.1 71Z "/></g><mask id="satori_om-id-2-1"><rect x="801" y="91" width="343" height="31" fill="#fff" mask="url(#satori_om-id)"/></mask><g mask="url(#satori_om-id)" clip-path="url(#satori_cp-id)"><path fill="#0a0a0a" d="M809.5 116L805.6 116L801.4 101.8L805.4 101.8L806.6 107.0Q806.9 108.5 807.3 110.1L807.3 110.1Q807.6 111.2 807.8 112.5L807.8 112.5Q808.0 111.3 808.3 110.1L808.3 110.1Q808.7 108.5 809.0 107.0L809.0 107.0L810.3 101.8L813.8 101.8L815.1 107.0Q815.4 108.5 815.8 110.1L815.8 110.1Q816.1 111.3 816.3 112.5L816.3 112.5Q816.5 111.3 816.8 110.1L816.8 110.1Q817.1 108.5 817.4 107.0L817.4 107.0L818.7 101.8L822.7 101.8L818.5 116L814.6 116L813.0 110.5Q812.8 109.7 812.6 108.7Q812.4 107.7 812.1 106.7L812.1 106.7Q812.1 106.4 812.0 106.2L812.0 106.2Q812.0 106.4 811.9 106.7L811.9 106.7Q811.7 107.7 811.5 108.7Q811.3 109.7 811.0 110.5L811.0 110.5L809.5 116ZM831.1 116.3L831.1 116.3Q828.9 116.3 827.4 115.4Q825.8 114.4 825.0 112.8Q824.1 111.2 824.1 109.0L824.1 109.0Q824.1 106.8 825.0 105.1Q825.8 103.5 827.4 102.5Q828.9 101.6 831.1 101.6L831.1 101.6Q833.2 101.6 834.8 102.5Q836.3 103.5 837.2 105.1Q838.0 106.8 838.0 109.0L838.0 109.0Q838.0 111.2 837.2 112.8Q836.3 114.4 834.8 115.4Q833.2 116.3 831.1 116.3ZM831.1 113.3L831.1 113.3Q832.1 113.3 832.8 112.7Q833.5 112.2 833.8 111.2Q834.1 110.2 834.1 109.0L834.1 109.0Q834.1 107.7 833.8 106.7Q833.5 105.7 832.8 105.2Q832.1 104.6 831.1 104.6L831.1 104.6Q830.1 104.6 829.4 105.2Q828.7 105.7 828.4 106.7Q828.0 107.7 828.0 109.0L828.0 109.0Q828.0 110.2 828.4 111.2Q828.7 112.2 829.4 112.7Q830.1 113.3 831.1 113.3ZM844.5 116L840.7 116L840.7 101.8L844.4 101.8L844.4 104.3L844.5 104.3Q844.9 103.0 845.8 102.3Q846.7 101.6 847.9 101.6L847.9 101.6Q848.2 101.6 848.6 101.6Q848.9 101.7 849.2 101.7L849.2 101.7L849.2 105.1Q848.9 105.1 848.4 105.0Q847.9 105.0 847.5 105.0L847.5 105.0Q846.7 105.0 846.0 105.3Q845.3 105.7 844.9 106.4Q844.5 107.0 844.5 107.9L844.5 107.9L844.5 116ZM855.1 116L851.3 116L851.3 97.1L855.1 97.1L855.1 107.3L855.3 107.3L859.9 101.8L864.3 101.8L859.0 108.0L864.6 116L860.1 116L856.2 110.2L855.1 111.4L855.1 116ZM878.2 121.4L878.2 121.4Q875.3 121.4 873.0 120.6Q870.7 119.8 869.1 118.3Q867.5 116.8 866.7 114.5Q865.9 112.3 865.9 109.4L865.9 109.4Q865.9 106.7 866.7 104.5Q867.5 102.2 869.0 100.6Q870.6 99.0 872.9 98.1Q875.2 97.2 878.1 97.2L878.1 97.2Q880.9 97.2 883.0 98.0Q885.2 98.9 886.8 100.3Q888.3 101.8 889.1 103.8Q889.9 105.8 889.9 108.1L889.9 108.1Q889.9 109.7 889.7 111.1Q889.4 112.4 888.7 113.5Q888.1 114.5 887.1 115.1Q886.1 115.7 884.7 115.7L884.7 115.7Q883.9 115.7 883.1 115.4Q882.4 115.2 881.9 114.7Q881.4 114.3 881.3 113.5L881.3 113.5L881.2 113.5Q880.8 114.5 879.8 115.1Q878.8 115.7 877.3 115.7L877.3 115.7Q875.6 115.7 874.4 114.9Q873.2 114.1 872.5 112.6Q871.9 111.2 871.9 109.3L871.9 109.3Q871.9 107.5 872.6 106.0Q873.3 104.6 874.5 103.8Q875.8 103.0 877.4 103.0L877.4 103.0Q878.7 103.0 879.6 103.4Q880.4 103.9 880.8 104.6L880.8 104.6L881.0 104.6L881.0 103.3L883.6 103.3L883.6 111.8Q883.6 112.5 883.8 112.8Q884.1 113.2 884.7 113.2L884.7 113.2Q885.5 113.2 886.0 112.7Q886.5 112.1 886.7 111.1Q886.9 110.0 886.9 108.4L886.9 108.4Q886.9 106.5 886.3 105.0Q885.8 103.5 884.7 102.4Q883.7 101.3 882.1 100.7Q880.5 100.1 878.3 100.1L878.3 100.1Q876.1 100.1 874.4 100.7Q872.6 101.4 871.5 102.6Q870.3 103.8 869.7 105.5Q869.1 107.2 869.1 109.4L869.1 109.4Q869.1 111.6 869.7 113.3Q870.3 115.0 871.5 116.2Q872.7 117.3 874.4 117.9Q876.2 118.5 878.5 118.5L878.5 118.5Q879.5 118.5 880.5 118.4Q881.4 118.2 882.2 118.0Q883.0 117.8 883.5 117.5L883.5 117.5L884.5 120.2Q883.9 120.5 882.9 120.8Q881.9 121.1 880.7 121.2Q879.5 121.4 878.2 121.4ZM877.7 113.0L877.7 113.0Q878.7 113.0 879.4 112.5Q880.1 112.1 880.5 111.3Q880.8 110.5 880.8 109.3L880.8 109.3Q880.8 108.1 880.4 107.3Q880.1 106.6 879.4 106.2Q878.7 105.9 877.7 105.9L877.7 105.9Q876.8 105.9 876.1 106.3Q875.4 106.7 875.1 107.5Q874.7 108.3 874.7 109.3L874.7 109.3Q874.7 110.3 875.0 111.2Q875.3 112.0 876.0 112.5Q876.7 113.0 877.7 113.0ZM896.7 116.3L896.7 116.3Q895.4 116.3 894.3 115.8Q893.2 115.3 892.6 114.4Q892 113.4 892 112.0L892 112.0Q892 110.8 892.4 110.0Q892.9 109.2 893.6 108.8Q894.4 108.3 895.3 108.0Q896.3 107.8 897.4 107.7L897.4 107.7Q898.6 107.5 899.3 107.4Q900.1 107.3 900.4 107.1Q900.8 106.9 900.8 106.4L900.8 106.4L900.8 106.3Q900.8 105.7 900.5 105.3Q900.3 104.9 899.8 104.7Q899.3 104.4 898.6 104.4L898.6 104.4Q897.8 104.4 897.3 104.7Q896.7 104.9 896.4 105.3Q896.1 105.6 895.9 106.1L895.9 106.1L892.4 105.5Q892.8 104.3 893.6 103.4Q894.5 102.5 895.7 102.1Q897.0 101.6 898.6 101.6L898.6 101.6Q899.7 101.6 900.8 101.9Q901.9 102.2 902.7 102.7Q903.6 103.3 904.1 104.2Q904.6 105.2 904.6 106.4L904.6 106.4L904.6 116L901.0 116L901.0 114.0L900.9 114.0Q900.5 114.7 900.0 115.2Q899.4 115.7 898.6 116.0Q897.8 116.3 896.7 116.3ZM897.8 113.6L897.8 113.6Q898.7 113.6 899.4 113.2Q900.1 112.9 900.4 112.3Q900.8 111.7 900.8 110.9L900.8 110.9L900.8 109.4Q900.7 109.5 900.3 109.6Q900.0 109.7 899.6 109.8Q899.1 109.9 898.7 109.9Q898.3 110.0 898.0 110.0L898.0 110.0Q897.3 110.1 896.8 110.4Q896.2 110.6 895.9 111.0Q895.7 111.3 895.7 111.9L895.7 111.9Q895.7 112.5 895.9 112.8Q896.2 113.2 896.7 113.4Q897.2 113.6 897.8 113.6ZM915.8 116.2L915.8 116.2Q914.6 116.2 913.8 115.8Q913.0 115.5 912.5 114.9Q912.0 114.3 911.8 113.7L911.8 113.7L911.6 113.7L911.6 116L907.9 116L907.9 97.1L911.7 97.1L911.7 104.2L911.8 104.2Q912.0 103.6 912.5 103.0Q913.0 102.4 913.8 102.0Q914.6 101.6 915.8 101.6L915.8 101.6Q917.4 101.6 918.7 102.4Q920.0 103.3 920.8 104.9Q921.6 106.5 921.6 108.9L921.6 108.9Q921.6 111.3 920.8 112.9Q920.1 114.6 918.7 115.4Q917.4 116.2 915.8 116.2ZM914.6 113.2L914.6 113.2Q915.6 113.2 916.3 112.6Q917.0 112.1 917.3 111.1Q917.7 110.2 917.7 108.9L917.7 108.9Q917.7 107.7 917.3 106.7Q917.0 105.8 916.3 105.2Q915.6 104.7 914.6 104.7L914.6 104.7Q913.7 104.7 913.0 105.2Q912.3 105.7 911.9 106.7Q911.6 107.6 911.6 108.9L911.6 108.9Q911.6 110.2 911.9 111.2Q912.3 112.1 913.0 112.6Q913.7 113.2 914.6 113.2ZM928.1 107.8L928.1 107.8L928.1 116L924.2 116L924.2 97.1L928.0 97.1L928.0 104.5Q928.5 103.3 929.4 102.6L929.4 102.6Q930.5 101.6 932.3 101.6L932.3 101.6Q933.8 101.6 934.9 102.3Q936.0 102.9 936.6 104.1Q937.2 105.3 937.2 107.0L937.2 107.0L937.2 116L933.4 116L933.4 107.6Q933.4 106.3 932.7 105.6Q932.0 104.8 930.8 104.8L930.8 104.8Q930.0 104.8 929.4 105.2Q928.8 105.5 928.4 106.2Q928.1 106.8 928.1 107.8ZM944.2 116L940.4 116L940.4 101.8L944.2 101.8L944.2 116ZM942.3 100.0L942.3 100.0Q941.5 100.0 940.9 99.4Q940.3 98.8 940.3 98.0L940.3 98.0Q940.3 97.2 940.9 96.6Q941.5 96.0 942.3 96.0L942.3 96.0Q943.2 96.0 943.8 96.6Q944.4 97.2 944.4 98.0L944.4 98.0Q944.4 98.8 943.8 99.4Q943.2 100.0 942.3 100.0ZM947.5 116.7L947.5 101.8L951.3 101.8L951.3 116.7Q951.3 118.3 950.7 119.4Q950.0 120.4 948.8 120.8Q947.6 121.3 946.0 121.3L946.0 121.3L945.2 121.3L945.2 118.3L945.7 118.3Q946.7 118.3 947.1 117.9Q947.5 117.5 947.5 116.7L947.5 116.7ZM949.4 100.0L949.4 100.0Q948.5 100.0 947.9 99.4Q947.3 98.8 947.3 98.0L947.3 98.0Q947.3 97.2 947.9 96.6Q948.5 96.0 949.4 96.0L949.4 96.0Q950.2 96.0 950.9 96.6Q951.5 97.2 951.5 98.0L951.5 98.0Q951.5 98.8 950.9 99.4Q950.2 100.0 949.4 100.0ZM958.3 116L954.5 116L954.5 101.8L958.3 101.8L958.3 116ZM956.4 100.0L956.4 100.0Q955.6 100.0 955.0 99.4Q954.3 98.8 954.3 98.0L954.3 98.0Q954.3 97.2 955.0 96.6Q955.6 96.0 956.4 96.0L956.4 96.0Q957.3 96.0 957.9 96.6Q958.5 97.2 958.5 98.0L958.5 98.0Q958.5 98.8 957.9 99.4Q957.3 100.0 956.4 100.0ZM966.0 101.8L968.6 101.8L968.6 104.7L966.0 104.7L966.0 111.8Q966.0 112.5 966.3 112.8Q966.6 113.2 967.3 113.2L967.3 113.2Q967.5 113.2 967.9 113.1Q968.3 113.1 968.5 113.0L968.5 113.0L969.0 115.9Q968.4 116.1 967.7 116.1Q967.1 116.2 966.5 116.2L966.5 116.2Q964.4 116.2 963.3 115.2Q962.2 114.1 962.2 112.2L962.2 112.2L962.2 104.7L960.2 104.7L960.2 101.8L962.2 101.8L962.2 98.4L966.0 98.4L966.0 101.8ZM974.9 107.8L974.9 107.8L974.9 116L971.1 116L971.1 97.1L974.8 97.1L974.8 104.5Q975.4 103.3 976.2 102.6L976.2 102.6Q977.4 101.6 979.2 101.6L979.2 101.6Q980.6 101.6 981.7 102.3Q982.8 102.9 983.4 104.1Q984.0 105.3 984.0 107.0L984.0 107.0L984.0 116L980.2 116L980.2 107.6Q980.2 106.3 979.5 105.6Q978.9 104.8 977.7 104.8L977.7 104.8Q976.9 104.8 976.2 105.2Q975.6 105.5 975.2 106.2Q974.9 106.8 974.9 107.8ZM993.6 121.6L993.6 121.6Q991.8 121.6 990.5 121.2Q989.2 120.7 988.3 119.9Q987.5 119.1 987.2 118.1L987.2 118.1L990.5 117.2Q990.7 117.6 991.0 118.0Q991.4 118.4 992.0 118.6Q992.6 118.8 993.6 118.8L993.6 118.8Q995.0 118.8 995.9 118.2Q996.7 117.5 996.7 116.1L996.7 116.1L996.7 113.5L996.4 113.5Q996.1 114.1 995.7 114.6Q995.2 115.1 994.4 115.5Q993.6 115.8 992.5 115.8L992.5 115.8Q990.9 115.8 989.6 115.0Q988.2 114.3 987.5 112.8Q986.7 111.2 986.7 108.9L986.7 108.9Q986.7 106.5 987.5 104.9Q988.3 103.3 989.6 102.4Q990.9 101.6 992.5 101.6L992.5 101.6Q993.7 101.6 994.5 102.0Q995.3 102.4 995.8 103.0Q996.3 103.6 996.5 104.2L996.5 104.2L996.7 104.2L996.7 101.8L1000.5 101.8L1000.5 115.9Q1000.5 117.8 999.6 119.1Q998.7 120.3 997.1 121.0Q995.6 121.6 993.6 121.6ZM993.7 112.9L993.7 112.9Q994.6 112.9 995.3 112.4Q996.0 111.9 996.3 111.0Q996.7 110.1 996.7 108.9L996.7 108.9Q996.7 107.6 996.3 106.7Q996.0 105.7 995.3 105.2Q994.6 104.7 993.7 104.7L993.7 104.7Q992.6 104.7 992.0 105.2Q991.3 105.8 990.9 106.7Q990.6 107.6 990.6 108.9L990.6 108.9Q990.6 110.1 990.9 111.0Q991.3 111.9 992.0 112.4Q992.7 112.9 993.7 112.9ZM1007.7 116.3L1007.7 116.3Q1006.3 116.3 1005.2 115.8Q1004.2 115.3 1003.6 114.4Q1002.9 113.4 1002.9 112.0L1002.9 112.0Q1002.9 110.8 1003.4 110.0Q1003.8 109.2 1004.6 108.8Q1005.3 108.3 1006.3 108.0Q1007.2 107.8 1008.3 107.7L1008.3 107.7Q1009.5 107.5 1010.3 107.4Q1011.0 107.3 1011.4 107.1Q1011.7 106.9 1011.7 106.4L1011.7 106.4L1011.7 106.3Q1011.7 105.7 1011.5 105.3Q1011.2 104.9 1010.7 104.7Q1010.2 104.4 1009.5 104.4L1009.5 104.4Q1008.8 104.4 1008.2 104.7Q1007.7 104.9 1007.3 105.3Q1007.0 105.6 1006.8 106.1L1006.8 106.1L1003.4 105.5Q1003.7 104.3 1004.6 103.4Q1005.4 102.5 1006.7 102.1Q1007.9 101.6 1009.5 101.6L1009.5 101.6Q1010.7 101.6 1011.8 101.9Q1012.8 102.2 1013.7 102.7Q1014.5 103.3 1015.0 104.2Q1015.6 105.2 1015.6 106.4L1015.6 106.4L1015.6 116L1011.9 116L1011.9 114.0L1011.8 114.0Q1011.5 114.7 1010.9 115.2Q1010.3 115.7 1009.5 116.0Q1008.7 116.3 1007.7 116.3ZM1008.7 113.6L1008.7 113.6Q1009.6 113.6 1010.3 113.2Q1011.0 112.9 1011.4 112.3Q1011.8 111.7 1011.8 110.9L1011.8 110.9L1011.8 109.4Q1011.6 109.5 1011.3 109.6Q1010.9 109.7 1010.5 109.8Q1010.1 109.9 1009.7 109.9Q1009.3 110.0 1008.9 110.0L1008.9 110.0Q1008.3 110.1 1007.7 110.4Q1007.2 110.6 1006.9 111.0Q1006.6 111.3 1006.6 111.9L1006.6 111.9Q1006.6 112.5 1006.9 112.8Q1007.2 113.2 1007.6 113.4Q1008.1 113.6 1008.7 113.6ZM1022.6 107.8L1022.6 107.8L1022.6 116L1018.8 116L1018.8 101.8L1022.4 101.8L1022.4 104.7Q1023.0 103.4 1023.9 102.6L1023.9 102.6Q1025.1 101.6 1026.9 101.6L1026.9 101.6Q1028.3 101.6 1029.4 102.3Q1030.5 102.9 1031.1 104.1Q1031.7 105.3 1031.7 107.0L1031.7 107.0L1031.7 116L1027.9 116L1027.9 107.6Q1027.9 106.3 1027.2 105.6Q1026.6 104.8 1025.4 104.8L1025.4 104.8Q1024.6 104.8 1023.9 105.2Q1023.3 105.5 1023.0 106.2Q1022.6 106.8 1022.6 107.8ZM1041.4 116.3L1041.4 116.3Q1039.2 116.3 1037.7 115.4Q1036.1 114.5 1035.2 112.9Q1034.4 111.2 1034.4 109.0L1034.4 109.0Q1034.4 106.8 1035.2 105.1Q1036.1 103.5 1037.6 102.6Q1039.1 101.6 1041.2 101.6L1041.2 101.6Q1042.6 101.6 1043.8 102.1Q1045.0 102.5 1045.9 103.4Q1046.8 104.3 1047.4 105.7Q1047.9 107.0 1047.9 108.8L1047.9 108.8L1047.9 109.9L1038.2 109.9Q1038.2 111.0 1038.6 111.7L1038.6 111.7Q1039.0 112.6 1039.7 113.0Q1040.5 113.4 1041.5 113.4L1041.5 113.4Q1042.1 113.4 1042.7 113.2Q1043.2 113.0 1043.6 112.7Q1044.0 112.3 1044.2 111.7L1044.2 111.7L1047.7 112.4Q1047.3 113.5 1046.5 114.4Q1045.6 115.3 1044.3 115.8Q1043.1 116.3 1041.4 116.3ZM1038.2 107.5L1038.2 107.5L1044.2 107.5Q1044.1 106.8 1043.9 106.2L1043.9 106.2Q1043.6 105.4 1042.9 104.9Q1042.2 104.5 1041.2 104.5L1041.2 104.5Q1040.3 104.5 1039.6 105.0Q1038.9 105.4 1038.5 106.2L1038.5 106.2Q1038.3 106.8 1038.2 107.5ZM1056.1 116.3L1056.1 116.3Q1054.4 116.3 1053.1 115.8Q1051.8 115.3 1050.9 114.4Q1050.1 113.4 1049.8 112.1L1049.8 112.1L1053.4 111.5Q1053.7 112.5 1054.4 113.0Q1055.1 113.5 1056.2 113.5L1056.2 113.5Q1057.3 113.5 1057.9 113.1Q1058.6 112.7 1058.6 112.0L1058.6 112.0Q1058.6 111.5 1058.1 111.1Q1057.7 110.8 1056.7 110.6L1056.7 110.6L1054.3 110.1Q1052.2 109.6 1051.2 108.6Q1050.2 107.6 1050.2 106.0L1050.2 106.0Q1050.2 104.7 1051.0 103.7Q1051.7 102.7 1053.0 102.2Q1054.4 101.6 1056.2 101.6L1056.2 101.6Q1057.9 101.6 1059.1 102.1Q1060.3 102.6 1061.1 103.4Q1061.8 104.3 1062.1 105.4L1062.1 105.4L1058.7 106.0Q1058.5 105.3 1057.9 104.8Q1057.3 104.4 1056.2 104.4L1056.2 104.4Q1055.3 104.4 1054.7 104.8Q1054.0 105.1 1054.0 105.8L1054.0 105.8Q1054.0 106.3 1054.4 106.7Q1054.8 107.1 1055.8 107.3L1055.8 107.3L1058.4 107.8Q1060.5 108.2 1061.5 109.2Q1062.5 110.1 1062.5 111.6L1062.5 111.6Q1062.5 113.0 1061.6 114.1Q1060.8 115.1 1059.4 115.7Q1058.0 116.3 1056.1 116.3ZM1068.8 107.8L1068.8 107.8L1068.8 116L1065.0 116L1065.0 97.1L1068.8 97.1L1068.8 104.5Q1069.3 103.3 1070.2 102.6L1070.2 102.6Q1071.3 101.6 1073.1 101.6L1073.1 101.6Q1074.6 101.6 1075.7 102.3Q1076.8 102.9 1077.4 104.1Q1078.0 105.3 1078.0 107.0L1078.0 107.0L1078.0 116L1074.2 116L1074.2 107.6Q1074.2 106.3 1073.5 105.6Q1072.8 104.8 1071.6 104.8L1071.6 104.8Q1070.8 104.8 1070.2 105.2Q1069.5 105.5 1069.2 106.2Q1068.8 106.8 1068.8 107.8ZM1083.9 116.2L1083.9 116.2Q1083.0 116.2 1082.4 115.6Q1081.7 115.0 1081.7 114.1L1081.7 114.1Q1081.7 113.1 1082.4 112.5Q1083.0 111.9 1083.9 111.9L1083.9 111.9Q1084.9 111.9 1085.5 112.5Q1086.1 113.1 1086.1 114.1L1086.1 114.1Q1086.1 115.0 1085.5 115.6Q1084.9 116.2 1083.9 116.2ZM1096.3 116.3L1096.3 116.3Q1094.1 116.3 1092.6 115.4Q1091.0 114.4 1090.2 112.8Q1089.3 111.2 1089.3 109.0L1089.3 109.0Q1089.3 106.8 1090.2 105.1Q1091.0 103.5 1092.6 102.5Q1094.1 101.6 1096.3 101.6L1096.3 101.6Q1097.5 101.6 1098.6 102.0Q1099.6 102.3 1100.5 102.9Q1101.3 103.5 1101.8 104.4Q1102.4 105.3 1102.6 106.4L1102.6 106.4L1099.0 107.0Q1098.9 106.5 1098.7 106.0Q1098.4 105.6 1098.1 105.3Q1097.7 105.0 1097.3 104.8Q1096.8 104.6 1096.3 104.6L1096.3 104.6Q1095.3 104.6 1094.6 105.2Q1093.9 105.7 1093.5 106.7Q1093.2 107.7 1093.2 109.0L1093.2 109.0Q1093.2 110.2 1093.5 111.2Q1093.9 112.2 1094.6 112.7Q1095.3 113.3 1096.3 113.3L1096.3 113.3Q1096.8 113.3 1097.3 113.1Q1097.8 112.9 1098.1 112.6Q1098.5 112.3 1098.7 111.8Q1098.9 111.4 1099.0 110.8L1099.0 110.8L1102.6 111.5Q1102.4 112.6 1101.9 113.5Q1101.3 114.3 1100.5 115.0Q1099.7 115.6 1098.6 115.9Q1097.5 116.3 1096.3 116.3ZM1111.6 116.3L1111.6 116.3Q1109.4 116.3 1107.9 115.4Q1106.3 114.4 1105.5 112.8Q1104.6 111.2 1104.6 109.0L1104.6 109.0Q1104.6 106.8 1105.5 105.1Q1106.3 103.5 1107.9 102.5Q1109.4 101.6 1111.6 101.6L1111.6 101.6Q1113.7 101.6 1115.3 102.5Q1116.8 103.5 1117.7 105.1Q1118.5 106.8 1118.5 109.0L1118.5 109.0Q1118.5 111.2 1117.7 112.8Q1116.8 114.4 1115.3 115.4Q1113.7 116.3 1111.6 116.3ZM1111.6 113.3L1111.6 113.3Q1112.6 113.3 1113.3 112.7Q1113.9 112.2 1114.3 111.2Q1114.6 110.2 1114.6 109.0L1114.6 109.0Q1114.6 107.7 1114.3 106.7Q1113.9 105.7 1113.3 105.2Q1112.6 104.6 1111.6 104.6L1111.6 104.6Q1110.5 104.6 1109.9 105.2Q1109.2 105.7 1108.8 106.7Q1108.5 107.7 1108.5 109.0L1108.5 109.0Q1108.5 110.2 1108.8 111.2Q1109.2 112.2 1109.9 112.7Q1110.5 113.3 1111.6 113.3ZM1125.0 116L1121.2 116L1121.2 101.8L1124.7 101.8L1124.8 104.6Q1125.1 103.8 1125.6 103.2L1125.6 103.2Q1126.2 102.4 1127.1 102.0Q1127.9 101.6 1128.9 101.6L1128.9 101.6Q1130.4 101.6 1131.4 102.6L1131.4 102.6Q1132.1 103.3 1132.5 104.8L1132.5 104.8Q1132.8 103.9 1133.3 103.3L1133.3 103.3Q1134.0 102.4 1135.0 102.0Q1136.0 101.6 1137.1 101.6L1137.1 101.6Q1138.4 101.6 1139.4 102.2Q1140.4 102.7 1141.0 103.8Q1141.6 104.9 1141.6 106.4L1141.6 106.4L1141.6 116L1137.8 116L1137.8 107.2Q1137.8 105.9 1137.2 105.4Q1136.5 104.8 1135.6 104.8L1135.6 104.8Q1134.8 104.8 1134.3 105.1Q1133.8 105.4 1133.5 106.0Q1133.2 106.5 1133.2 107.3L1133.2 107.3L1133.2 116L1129.5 116L1129.5 107.0Q1129.5 106.0 1128.9 105.4Q1128.3 104.8 1127.3 104.8L1127.3 104.8Q1126.7 104.8 1126.1 105.1Q1125.6 105.4 1125.3 106.0Q1125.0 106.6 1125.0 107.4L1125.0 107.4L1125.0 116Z "/></g><mask id="satori_om-id-2-2"><rect x="844" y="136" width="300" height="36" fill="#fff" mask="url(#satori_om-id)"/></mask><rect x="844" y="136" width="300" height="36" fill="#0a0a0a" clip-path="url(#satori_cp-id)" mask="url(#satori_om-id)"/><g mask="url(#satori_om-id)" clip-path="url(#satori_cp-id)"><path fill="#f5efe6" d="M869.0 159.1L869.0 159.1Q867.8 159.1 866.8 158.6Q865.8 158.0 865.2 156.9Q864.6 155.8 864.6 154.3L864.6 154.3Q864.6 152.7 865.2 151.6Q865.8 150.6 866.8 150.0Q867.8 149.4 869.0 149.4L869.0 149.4Q870.3 149.4 871.3 150.0Q872.3 150.6 872.8 151.6Q873.4 152.7 873.4 154.3L873.4 154.3Q873.4 155.8 872.8 156.9Q872.3 158.0 871.3 158.6Q870.3 159.1 869.0 159.1ZM869.0 157.4L869.0 157.4Q869.7 157.4 870.3 157.0Q870.8 156.7 871.1 156.0Q871.5 155.3 871.5 154.3L871.5 154.3Q871.5 153.3 871.1 152.6Q870.8 151.9 870.3 151.5Q869.7 151.1 869.0 151.1L869.0 151.1Q868.3 151.1 867.7 151.5Q867.2 151.9 866.9 152.6Q866.6 153.3 866.6 154.3L866.6 154.3Q866.6 155.3 866.9 156.0Q867.2 156.7 867.7 157.0Q868.3 157.4 869.0 157.4ZM879.8 159L877.9 159L877.9 149.5L881.6 149.5Q882.6 149.5 883.4 150.0Q884.2 150.4 884.5 151.1Q884.9 151.8 884.9 152.7L884.9 152.7Q884.9 153.7 884.5 154.4Q884.1 155.1 883.4 155.5Q882.6 155.9 881.5 155.9L881.5 155.9L879.8 155.9L879.8 159ZM879.8 151.1L879.8 154.3L881.2 154.3Q881.8 154.3 882.2 154.1Q882.6 153.9 882.8 153.6Q882.9 153.2 882.9 152.7Q882.9 152.3 882.8 151.9Q882.6 151.5 882.2 151.3Q881.8 151.1 881.2 151.1L881.2 151.1L879.8 151.1ZM895.6 159L889.3 159L889.3 149.5L895.6 149.5L895.6 151.1L891.2 151.1L891.2 153.4L895.3 153.4L895.3 155.0L891.2 155.0L891.2 157.4L895.6 157.4L895.6 159ZM902.2 159L900.2 159L900.2 149.5L902.4 149.5L905.3 154.3Q905.6 154.7 905.8 155.1Q906.0 155.6 906.3 156.1L906.3 156.1Q906.4 156.3 906.5 156.6L906.5 156.6Q906.5 156.4 906.5 156.1L906.5 156.1Q906.5 155.6 906.4 155.0Q906.4 154.5 906.4 154.1L906.4 154.1L906.4 149.5L908.4 149.5L908.4 159L906.2 159L903.5 154.7Q903.2 154.2 903.0 153.7Q902.7 153.2 902.4 152.7L902.4 152.7Q902.3 152.4 902.0 151.9L902.0 151.9Q902.1 152.3 902.1 152.7L902.1 152.7Q902.1 153.3 902.2 153.8Q902.2 154.3 902.2 154.7L902.2 154.7L902.2 159Z M921.1 159L919.2 159L919.2 149.5L925.4 149.5L925.4 151.1L921.1 151.1L921.1 153.8L925.0 153.8L925.0 155.4L921.1 155.4L921.1 159ZM934.0 159.1L934.0 159.1Q932.7 159.1 931.7 158.6Q930.7 158.0 930.1 156.9Q929.6 155.8 929.6 154.3L929.6 154.3Q929.6 152.7 930.1 151.6Q930.7 150.6 931.7 150.0Q932.7 149.4 934.0 149.4L934.0 149.4Q935.2 149.4 936.2 150.0Q937.2 150.6 937.8 151.6Q938.4 152.7 938.4 154.3L938.4 154.3Q938.4 155.8 937.8 156.9Q937.2 158.0 936.2 158.6Q935.2 159.1 934.0 159.1ZM934.0 157.4L934.0 157.4Q934.7 157.4 935.2 157.0Q935.8 156.7 936.1 156.0Q936.4 155.3 936.4 154.3L936.4 154.3Q936.4 153.3 936.1 152.6Q935.8 151.9 935.2 151.5Q934.7 151.1 934.0 151.1L934.0 151.1Q933.2 151.1 932.7 151.5Q932.1 151.9 931.8 152.6Q931.5 153.3 931.5 154.3L931.5 154.3Q931.5 155.3 931.8 156.0Q932.1 156.7 932.7 157.0Q933.2 157.4 934.0 157.4ZM944.8 159L942.8 159L942.8 149.5L946.5 149.5Q947.6 149.5 948.3 149.9Q949.1 150.3 949.5 151.0Q949.9 151.7 949.9 152.6Q949.9 153.6 949.5 154.2Q949.1 154.9 948.3 155.3L948.3 155.3Q948.3 155.3 948.2 155.3L948.2 155.3L950.2 159L948.1 159L946.3 155.6L944.8 155.6L944.8 159ZM944.8 151.1L944.8 154.1L946.2 154.1Q946.8 154.1 947.1 153.9Q947.5 153.7 947.7 153.4Q947.9 153.1 947.9 152.6L947.9 152.6Q947.9 152.1 947.7 151.8Q947.5 151.5 947.1 151.3Q946.8 151.1 946.2 151.1L946.2 151.1L944.8 151.1Z M964.6 159.1L964.6 159.1Q963.3 159.1 962.3 158.6Q961.3 158.0 960.8 156.9Q960.2 155.8 960.2 154.3L960.2 154.3Q960.2 152.7 960.8 151.6Q961.3 150.6 962.3 150.0Q963.3 149.4 964.6 149.4L964.6 149.4Q965.4 149.4 966.1 149.6Q966.8 149.9 967.3 150.3Q967.9 150.7 968.2 151.4Q968.5 152.0 968.6 152.8L968.6 152.8L966.7 152.8Q966.6 152.4 966.4 152.1Q966.3 151.8 966.0 151.6Q965.7 151.4 965.4 151.2Q965.0 151.1 964.6 151.1L964.6 151.1Q963.9 151.1 963.3 151.5Q962.8 151.9 962.5 152.6Q962.2 153.3 962.2 154.3L962.2 154.3Q962.2 155.3 962.5 156.0Q962.8 156.7 963.3 157.1Q963.9 157.4 964.6 157.4L964.6 157.4Q965.0 157.4 965.4 157.3Q965.7 157.2 966.0 157.0Q966.3 156.8 966.4 156.5Q966.6 156.1 966.7 155.8L966.7 155.8L968.7 155.8Q968.6 156.4 968.3 157.0Q967.9 157.6 967.4 158.1Q966.9 158.6 966.2 158.9Q965.5 159.1 964.6 159.1ZM977.2 159.1L977.2 159.1Q976.0 159.1 975.0 158.6Q974.0 158.0 973.4 156.9Q972.8 155.8 972.8 154.3L972.8 154.3Q972.8 152.7 973.4 151.6Q974.0 150.6 975.0 150.0Q976.0 149.4 977.2 149.4L977.2 149.4Q978.5 149.4 979.5 150.0Q980.5 150.6 981.0 151.6Q981.6 152.7 981.6 154.3L981.6 154.3Q981.6 155.8 981.0 156.9Q980.5 158.0 979.5 158.6Q978.5 159.1 977.2 159.1ZM977.2 157.4L977.2 157.4Q977.9 157.4 978.5 157.0Q979.0 156.7 979.4 156.0Q979.7 155.3 979.7 154.3L979.7 154.3Q979.7 153.3 979.4 152.6Q979.0 151.9 978.5 151.5Q977.9 151.1 977.2 151.1L977.2 151.1Q976.5 151.1 975.9 151.5Q975.4 151.9 975.1 152.6Q974.8 153.3 974.8 154.3L974.8 154.3Q974.8 155.3 975.1 156.0Q975.4 156.7 975.9 157.0Q976.5 157.4 977.2 157.4ZM992.1 159L986.1 159L986.1 149.5L988.0 149.5L988.0 157.4L992.1 157.4L992.1 159ZM1002.4 159L996.4 159L996.4 149.5L998.4 149.5L998.4 157.4L1002.4 157.4L1002.4 159ZM1008.4 159L1006.2 159L1009.5 149.5L1012.0 149.5L1015.3 159L1013.2 159L1012.4 156.8L1009.1 156.8L1008.4 159ZM1009.6 155.3L1011.9 155.3L1011.6 154.4Q1011.4 153.6 1011.1 152.5L1011.1 152.5Q1010.9 151.8 1010.7 151.1L1010.7 151.1Q1010.5 151.8 1010.4 152.5L1010.4 152.5Q1010.1 153.6 1009.8 154.4L1009.8 154.4L1009.6 155.3ZM1023.5 159L1019.5 159L1019.5 149.5L1023.2 149.5Q1024.3 149.5 1025.0 149.9Q1025.7 150.2 1026.0 150.7Q1026.4 151.3 1026.4 152.0L1026.4 152.0Q1026.4 152.5 1026.1 152.9Q1025.9 153.4 1025.5 153.6Q1025.1 153.9 1024.7 154.0L1024.7 154.0L1024.7 154.1Q1025.2 154.1 1025.7 154.4Q1026.1 154.7 1026.4 155.2Q1026.7 155.7 1026.7 156.4L1026.7 156.4Q1026.7 157.1 1026.4 157.7Q1026.0 158.3 1025.3 158.7Q1024.5 159 1023.5 159L1023.5 159ZM1021.4 154.8L1021.4 157.4L1023.1 157.4Q1023.9 157.4 1024.3 157.1Q1024.7 156.7 1024.7 156.2L1024.7 156.2Q1024.7 155.8 1024.5 155.5Q1024.3 155.2 1024.0 155.0Q1023.6 154.8 1023.1 154.8L1023.1 154.8L1021.4 154.8ZM1021.4 151.1L1021.4 153.5L1022.9 153.5Q1023.4 153.5 1023.7 153.4Q1024.0 153.2 1024.2 152.9Q1024.4 152.7 1024.4 152.3L1024.4 152.3Q1024.4 151.8 1024.0 151.4Q1023.7 151.1 1023.0 151.1L1023.0 151.1L1021.4 151.1ZM1035.2 159.1L1035.2 159.1Q1034.0 159.1 1033.0 158.6Q1032.0 158.0 1031.4 156.9Q1030.8 155.8 1030.8 154.3L1030.8 154.3Q1030.8 152.7 1031.4 151.6Q1032.0 150.6 1033.0 150.0Q1034.0 149.4 1035.2 149.4L1035.2 149.4Q1036.5 149.4 1037.5 150.0Q1038.5 150.6 1039.1 151.6Q1039.6 152.7 1039.6 154.3L1039.6 154.3Q1039.6 155.8 1039.1 156.9Q1038.5 158.0 1037.5 158.6Q1036.5 159.1 1035.2 159.1ZM1035.2 157.4L1035.2 157.4Q1036.0 157.4 1036.5 157.0Q1037.1 156.7 1037.4 156.0Q1037.7 155.3 1037.7 154.3L1037.7 154.3Q1037.7 153.3 1037.4 152.6Q1037.1 151.9 1036.5 151.5Q1036.0 151.1 1035.2 151.1L1035.2 151.1Q1034.5 151.1 1034.0 151.5Q1033.4 151.9 1033.1 152.6Q1032.8 153.3 1032.8 154.3L1032.8 154.3Q1032.8 155.3 1033.1 156.0Q1033.4 156.7 1034.0 157.0Q1034.5 157.4 1035.2 157.4ZM1046.0 159L1044.1 159L1044.1 149.5L1047.8 149.5Q1048.9 149.5 1049.6 149.9Q1050.4 150.3 1050.8 151.0Q1051.2 151.7 1051.2 152.6Q1051.2 153.6 1050.8 154.2Q1050.4 154.9 1049.6 155.3L1049.6 155.3Q1049.5 155.3 1049.5 155.3L1049.5 155.3L1051.5 159L1049.4 159L1047.6 155.6L1046.0 155.6L1046.0 159ZM1046.0 151.1L1046.0 154.1L1047.4 154.1Q1048.0 154.1 1048.4 153.9Q1048.8 153.7 1049.0 153.4Q1049.2 153.1 1049.2 152.6L1049.2 152.6Q1049.2 152.1 1049.0 151.8Q1048.8 151.5 1048.4 151.3Q1048.0 151.1 1047.4 151.1L1047.4 151.1L1046.0 151.1ZM1057.2 159L1055.1 159L1058.3 149.5L1060.9 149.5L1064.2 159L1062.0 159L1061.3 156.8L1057.9 156.8L1057.2 159ZM1058.4 155.3L1060.8 155.3L1060.5 154.4Q1060.2 153.6 1060.0 152.5L1060.0 152.5Q1059.8 151.8 1059.6 151.1L1059.6 151.1Q1059.4 151.8 1059.2 152.5L1059.2 152.5Q1059.0 153.6 1058.7 154.4L1058.7 154.4L1058.4 155.3ZM1070.9 151.1L1068.0 151.1L1068.0 149.5L1075.7 149.5L1075.7 151.1L1072.8 151.1L1072.8 159L1070.9 159L1070.9 151.1ZM1080.0 149.5L1082.0 149.5L1082.0 159L1080.0 159L1080.0 149.5ZM1090.8 159.1L1090.8 159.1Q1089.6 159.1 1088.6 158.6Q1087.6 158.0 1087.0 156.9Q1086.4 155.8 1086.4 154.3L1086.4 154.3Q1086.4 152.7 1087.0 151.6Q1087.6 150.6 1088.6 150.0Q1089.6 149.4 1090.8 149.4L1090.8 149.4Q1092.1 149.4 1093.1 150.0Q1094.1 150.6 1094.7 151.6Q1095.2 152.7 1095.2 154.3L1095.2 154.3Q1095.2 155.8 1094.7 156.9Q1094.1 158.0 1093.1 158.6Q1092.1 159.1 1090.8 159.1ZM1090.8 157.4L1090.8 157.4Q1091.6 157.4 1092.1 157.0Q1092.7 156.7 1093.0 156.0Q1093.3 155.3 1093.3 154.3L1093.3 154.3Q1093.3 153.3 1093.0 152.6Q1092.7 151.9 1092.1 151.5Q1091.6 151.1 1090.8 151.1L1090.8 151.1Q1090.1 151.1 1089.5 151.5Q1089.0 151.9 1088.7 152.6Q1088.4 153.3 1088.4 154.3L1088.4 154.3Q1088.4 155.3 1088.7 156.0Q1089.0 156.7 1089.5 157.0Q1090.1 157.4 1090.8 157.4ZM1101.7 159L1099.7 159L1099.7 149.5L1101.8 149.5L1104.8 154.3Q1105.1 154.7 1105.3 155.1Q1105.5 155.6 1105.8 156.1L1105.8 156.1Q1105.9 156.3 1106.0 156.6L1106.0 156.6Q1106.0 156.4 1106.0 156.1L1106.0 156.1Q1106.0 155.6 1105.9 155.0Q1105.9 154.5 1105.9 154.1L1105.9 154.1L1105.9 149.5L1107.9 149.5L1107.9 159L1105.7 159L1103.0 154.7Q1102.7 154.2 1102.4 153.7Q1102.2 153.2 1101.9 152.7L1101.9 152.7Q1101.8 152.4 1101.5 151.9L1101.5 151.9Q1101.6 152.3 1101.6 152.7L1101.6 152.7Q1101.6 153.3 1101.6 153.8Q1101.7 154.3 1101.7 154.7L1101.7 154.7L1101.7 159ZM1116.1 159.1L1116.1 159.1Q1114.9 159.1 1114.1 158.8Q1113.2 158.4 1112.8 157.8Q1112.3 157.1 1112.3 156.1L1112.3 156.1L1114.2 156.1Q1114.2 156.5 1114.5 156.9Q1114.7 157.2 1115.1 157.3Q1115.5 157.5 1116.0 157.5L1116.0 157.5Q1116.6 157.5 1116.9 157.4Q1117.3 157.2 1117.5 156.9Q1117.8 156.7 1117.8 156.3L1117.8 156.3Q1117.8 156.0 1117.6 155.8Q1117.4 155.5 1117.0 155.4Q1116.7 155.2 1116.1 155.1L1116.1 155.1L1115.1 154.8Q1113.9 154.5 1113.2 153.9Q1112.5 153.3 1112.5 152.3L1112.5 152.3Q1112.5 151.4 1113.0 150.8Q1113.5 150.1 1114.3 149.8Q1115.1 149.4 1116.1 149.4L1116.1 149.4Q1117.1 149.4 1117.9 149.8Q1118.7 150.1 1119.1 150.8Q1119.6 151.4 1119.6 152.2L1119.6 152.2L1117.7 152.2Q1117.7 151.7 1117.2 151.4Q1116.8 151.0 1116.1 151.0L1116.1 151.0Q1115.6 151.0 1115.2 151.2Q1114.9 151.3 1114.7 151.6Q1114.5 151.8 1114.5 152.1L1114.5 152.1Q1114.5 152.5 1114.7 152.7Q1114.9 153.0 1115.3 153.1Q1115.6 153.2 1116.0 153.3L1116.0 153.3L1116.9 153.5Q1117.5 153.7 1118.0 153.9Q1118.5 154.1 1118.9 154.5Q1119.3 154.8 1119.5 155.3Q1119.7 155.7 1119.7 156.3L1119.7 156.3Q1119.7 157.2 1119.3 157.8Q1118.8 158.4 1118.0 158.8Q1117.2 159.1 1116.1 159.1Z "/></g></svg>